# xmcd
#
# Track frame offsets: 
#        150
#        39587
#        67756
#        99847
#        130089
#        153406
#        181550
#        200947
#        233967
#        262231
#        285036
#        307677
#        332153
#
# Disc length: 4704 seconds
#
# Revision: 0
# Processed by: cddbd v1.5.2PL0 Copyright (c) Steve Scherf et al.
# Submitted via: ExactAudioCopy v1.0b1
#
DISCID=a6125e0d
DTITLE=Shalamar - The Ultimate Best Of - CD2
DYEAR=2011
DGENRE=Pop/Funk
TTITLE0=Uptown Festival (Medley) - 12" Version
TTITLE1=Take That To The Bank - 12" Version
TTITLE2=The Second Time Around - 12" Version
TTITLE3=Right In The Socket - 12" Version
TTITLE4=I Owe You One - 12" Version
TTITLE5=Make That Move - 12" Version
TTITLE6=I Can Make You Feel Good - 12" Version
TTITLE7=A Night To Remember - 12" Version
TTITLE8=There It Is - 12" Version
TTITLE9=Friends - 12" Version
TTITLE10=Dead Giveaway - 12" Version
TTITLE11=Disappearing Act - 12" Version
TTITLE12=Over And Over - 12" Version
EXTD=
EXTT0=
EXTT1=
EXTT2=
EXTT3=
EXTT4=
EXTT5=
EXTT6=
EXTT7=
EXTT8=
EXTT9=
EXTT10=
EXTT11=
EXTT12=
PLAYORDER=
